<?xml version="1.0" encoding="UTF-8"?>
<svg id="Layer_1" data-name="Layer 1" xmlns="http://www.w3.org/2000/svg" viewBox="0 0 800.19 149.6">
  <defs>
    <style>
      .cls-1 {
        fill: #d38377;
      }
    </style>
  </defs>
  <path class="cls-1" d="M0,74.8C0,30.2,27,.6,60.2.6s60.4,29.6,60.4,74.2-27,74-60.4,74S0,119.2,0,74.8ZM107.6,74.6C107.6,32.6,87.6,3.4,60.2,3.4S12.8,32.6,12.8,74.6s20.2,71.4,47.4,71.4,47.4-29.6,47.4-71.4Z"/>
  <path class="cls-1" d="M126.8,28.6l8.8-26.8h89v2.2c-42.2,55.2-55.4,105-55.4,143.4h-13.8c-1.2-24.8,27.4-96.4,62-136h-66.2c-14.6,0-20.2,10.2-23.6,17.2h-.8Z"/>
  <path class="cls-1" d="M230.2,147.4v-1.2c5-2,9.2-9,9.2-14.6V22.8c0-4.2-2.2-7.2-7.4-7.2h-7.2v-.4c10-4.2,18.2-8.8,26-15.2h.4v131.6c0,5.6,4.4,12.6,9.4,14.6v1.2h-30.4Z"/>
  <path class="cls-1" d="M375,70.4c0,44.8-23,78.4-56.4,78.4-23,0-35.8-14.4-37.6-35.6h1c2.8,18.6,14.6,31,36,31,23.2,0,44.8-23.6,44.8-75.2v-5.4c-6.8,13.2-24.2,24.8-42.6,24.8-24.2,0-43.6-18.6-43.6-42,0-25.6,19-45.8,48-45.8s50.4,24,50.4,69.8ZM362.8,61v-.6c0-37.2-14.2-56.8-37.6-56.8-27.8,0-36.4,21.4-36.4,42.6,0,22.4,12.6,38.8,32.8,38.8,18,0,33-10.6,41.2-24Z"/>
  <path class="cls-1" d="M482.8,104.4v43h-8.4v-43h-39.2v-7.2h39.2v-38.8h8.4v38.8h39.2v7.2h-39.2Z"/>
  <path class="cls-1" d="M576.39,95.8c0-31,19.6-54,49.8-54,16.4,0,26.4,7.8,31.8,11.8l-6.2,15.2h-.4c-2.8-6.6-10.4-24.6-26.4-24.6-23.4,0-37,24.6-37,49,0,28.2,16,47.4,40.2,47.4,13.2,0,23.8-4.2,30.6-14.4l.6.8c-4.8,11.8-18.2,21.8-35.4,21.8-28.2,0-47.6-20.4-47.6-53Z"/>
  <path class="cls-1" d="M668.8,96c0-32.4,21.2-54.2,48.8-54.2s48.6,20.6,48.6,53-21,54-48.6,54-48.8-20-48.8-52.8ZM754.6,95.4c0-30.8-16-51.2-37-51.2s-37.2,20.4-37.2,51.2,16,51,37.2,51,37-19.8,37-51Z"/>
  <path class="cls-1" d="M778.4,138.6c0-5.8,5-10.8,11-10.8s10.8,5,10.8,10.8c0,6.2-4.8,11-10.8,11s-11-5.2-11-11Z"/>
</svg>